<?xml version="1.0" encoding="utf-8"?>
<!-- Generator: Adobe Illustrator 18.1.0, SVG Export Plug-In . SVG Version: 6.00 Build 0)  -->
<!DOCTYPE svg PUBLIC "-//W3C//DTD SVG 1.1//EN" "http://www.w3.org/Graphics/SVG/1.1/DTD/svg11.dtd">
<svg version="1.1" id="Layer_1" xmlns="http://www.w3.org/2000/svg" xmlns:xlink="http://www.w3.org/1999/xlink" x="0px" y="0px"
	 viewBox="0 0 35 35" enable-background="new 0 0 35 35" xml:space="preserve">
<g>
	<path d="M31.2,11.2L17.4,24.9l-2.6,2.6C14.5,27.8,14,28,13.6,28s-0.9-0.2-1.3-0.5l-2.6-2.6L2.8,18c-0.3-0.3-0.5-0.8-0.5-1.3
		s0.2-0.9,0.5-1.3l2.6-2.6c0.3-0.3,0.8-0.5,1.3-0.5s0.9,0.2,1.3,0.5l5.6,5.6L26,6c0.3-0.3,0.8-0.5,1.3-0.5s0.9,0.2,1.3,0.5l2.6,2.6
		c0.3,0.3,0.5,0.8,0.5,1.3C31.7,10.3,31.5,10.8,31.2,11.2z"/>
</g>
</svg>
