<?xml version="1.0" encoding="utf-8"?>
<!-- Generator: Adobe Illustrator 18.1.0, SVG Export Plug-In . SVG Version: 6.00 Build 0)  -->
<!DOCTYPE svg PUBLIC "-//W3C//DTD SVG 1.1//EN" "http://www.w3.org/Graphics/SVG/1.1/DTD/svg11.dtd">
<svg version="1.1" id="Layer_1" xmlns="http://www.w3.org/2000/svg" xmlns:xlink="http://www.w3.org/1999/xlink" x="0px" y="0px"
	 viewBox="0 0 35 35" enable-background="new 0 0 35 35" xml:space="preserve">
<g>
	<path d="M17.7,31.7c-8,0-14.6-6.5-14.6-14.6S9.6,2.6,17.7,2.6s14.6,6.5,14.6,14.6S25.7,31.7,17.7,31.7z M17.7,6.8
		C12,6.8,7.4,11.4,7.4,17.1S12,27.5,17.7,27.5S28,22.8,28,17.1S23.4,6.8,17.7,6.8z M20.1,19c0,0.3-0.3,0.6-0.6,0.6h-6.1
		c-0.3,0-0.6-0.3-0.6-0.6v-1.2c0-0.3,0.3-0.6,0.6-0.6h4.2v-6.7c0-0.3,0.3-0.6,0.6-0.6h1.2c0.3,0,0.6,0.3,0.6,0.6V19z"/>
</g>
</svg>
