<?xml version="1.0" encoding="utf-8"?>
<!-- Generator: Adobe Illustrator 18.1.0, SVG Export Plug-In . SVG Version: 6.00 Build 0)  -->
<!DOCTYPE svg PUBLIC "-//W3C//DTD SVG 1.1//EN" "http://www.w3.org/Graphics/SVG/1.1/DTD/svg11.dtd">
<svg version="1.1" id="Layer_1" xmlns="http://www.w3.org/2000/svg" xmlns:xlink="http://www.w3.org/1999/xlink" x="0px" y="0px"
	 viewBox="0 0 35 35" enable-background="new 0 0 35 35" xml:space="preserve">
<g>
	<g>
		<path d="M20,32.5h-4.2c-0.9,0-1.6-0.6-1.7-1.5l-0.4-2.9c-0.2-0.1-0.5-0.2-0.7-0.3l-2.2,1.7c-0.5,0.5-1.6,0.5-2.3-0.1l-0.2-0.1
			c-1-0.9-2.3-2.1-3.1-3.2c-0.2-0.3-0.3-0.6-0.3-1c0-0.4,0.1-0.7,0.3-1c0.3-0.4,0.6-0.8,0.9-1.2c0.2-0.3,0.5-0.6,0.7-0.9
			c-0.1-0.3-0.3-0.6-0.4-0.9l-2.9-0.4c-0.8-0.1-1.4-0.9-1.4-1.7v-4.2c0-0.8,0.6-1.5,1.3-1.7l3-0.4c0.1-0.3,0.2-0.5,0.3-0.8
			c-0.5-0.7-1.1-1.4-1.6-2.1C4.9,9.5,4.9,9,4.9,8.8c0-0.5,0.2-0.8,0.4-1c0,0,3.1-3.8,4.5-3.8c0.4,0,0.8,0.1,1.1,0.4L12.9,6
			c0.2-0.1,0.5-0.2,0.7-0.3c0.1-1,0.2-2,0.5-3.1c0.2-0.7,0.9-1.3,1.6-1.3H20c0.9,0,1.6,0.6,1.7,1.5l0.4,2.9c0.2,0.1,0.5,0.2,0.7,0.3
			L25,4.3c0.6-0.5,1.6-0.5,2.2,0l0.4,0.3c1,0.9,2.2,2,2.9,3.1c0.2,0.2,0.3,0.6,0.3,1c0,0.4-0.1,0.7-0.3,1c-0.3,0.4-0.6,0.8-0.9,1.2
			c-0.2,0.3-0.5,0.6-0.7,0.9c0.1,0.3,0.3,0.6,0.4,0.9l2.9,0.4c0.8,0.1,1.4,0.9,1.4,1.7v4.2c0,0.8-0.6,1.5-1.3,1.7l-3,0.4
			c-0.1,0.3-0.2,0.5-0.3,0.7c0.5,0.7,1.1,1.4,1.6,2.1c0.3,0.3,0.4,0.7,0.4,1.1c0,0.4-0.1,0.8-0.4,1.1l0,0c0,0-3,3.7-4.4,3.7
			c-0.3,0-0.7-0.1-1-0.3l-0.1-0.1l-2.1-1.7c-0.2,0.1-0.4,0.2-0.7,0.3c-0.1,1-0.2,2-0.5,3.1C21.4,32,20.8,32.5,20,32.5z M16,30.5h3.7
			c0.2-0.9,0.3-1.8,0.4-2.8l0.1-1.1l0.6-0.2c0.5-0.2,1.1-0.4,1.6-0.7l0.6-0.3l3,2.3c0.7-0.5,2.2-2,2.8-2.8c-0.6-0.8-1.3-1.6-1.9-2.5
			l-0.4-0.5l0.3-0.5c0.2-0.4,0.4-0.9,0.7-1.6l0.2-0.6l3.8-0.6v-3.7l-3.8-0.6L27.5,14c-0.2-0.5-0.4-1.1-0.7-1.7l-0.3-0.5l0.4-0.5
			c0.4-0.5,0.7-1,1.1-1.4c0.3-0.3,0.5-0.7,0.8-1C28,7.9,27,6.9,26.2,6.2L26,6l-3,2.3L22.4,8c-0.5-0.2-1-0.5-1.6-0.6l-0.6-0.2
			l-0.6-3.8H16c-0.2,0.9-0.3,1.8-0.4,2.8l-0.1,1.1l-0.6,0.2c-0.5,0.2-1.1,0.4-1.6,0.7l-0.6,0.3L9.7,6C9,6.5,7.5,8.1,7,8.8
			c0.6,0.7,1.3,1.6,1.9,2.5l0.4,0.5L9,12.3c-0.3,0.5-0.5,1-0.7,1.6l-0.2,0.6l-3.8,0.6v3.7l3.8,0.6l0.2,0.6C8.5,20.5,8.7,21,9,21.6
			l0.3,0.5l-0.4,0.5c-0.4,0.5-0.7,1-1.1,1.4c-0.3,0.3-0.5,0.7-0.8,1C7.7,26,8.8,27,9.7,27.8l0,0l3-2.3l0.6,0.3
			c0.5,0.2,1,0.5,1.6,0.6l0.6,0.2L16,30.5z M17.9,22.8c-3.2,0-5.9-2.6-5.9-5.9s2.6-5.9,5.9-5.9s5.9,2.6,5.9,5.9S21.1,22.8,17.9,22.8
			z M17.9,13.1c-2.1,0-3.9,1.7-3.9,3.9s1.7,3.9,3.9,3.9s3.9-1.7,3.9-3.9S20,13.1,17.9,13.1z"/>
	</g>
</g>
</svg>
