<?xml version="1.0" encoding="utf-8"?>
<!-- Generator: Adobe Illustrator 18.1.0, SVG Export Plug-In . SVG Version: 6.00 Build 0)  -->
<!DOCTYPE svg PUBLIC "-//W3C//DTD SVG 1.1//EN" "http://www.w3.org/Graphics/SVG/1.1/DTD/svg11.dtd">
<svg version="1.1" id="Layer_1" xmlns="http://www.w3.org/2000/svg" xmlns:xlink="http://www.w3.org/1999/xlink" x="0px" y="0px"
	 viewBox="0 0 35 35" enable-background="new 0 0 35 35" xml:space="preserve">
<path fill-rule="evenodd" clip-rule="evenodd" fill="#4D4D4D" d="M34.2,8.4c-0.3-1.3-1.3-3.2-3-4.9l0,0c-1.7-1.7-3.3-2.9-6.8-2.7
	c-3.5,0.2-5.5,1.7-6.1,2.3S5.4,15.4,5.4,15.4l0.1,0l0,0l2.1,8.9l0.3,1.2l-6.6,6.6c-0.5,0.5-0.6,1.3-0.5,1.5l0.7,0.7
	c0.2,0.2,1-0.1,1.5-0.6l6.6-6.7l9.6,2.8L19,29.3l0.1,0.4c0,0,6.4-6.3,13.4-13.7C34.6,13.9,34.5,9.7,34.2,8.4z M29,4.3l-6.6,6.6
	L20.8,4C23.9,2.5,26.8,2.5,29,4.3z M22.5,13.8l7.4,1.8l-5.7,6l-7.5-1.9L22.5,13.8z M19.4,5l1.7,7.2l-5.7,5.7l-1.8-7.4L19.4,5z
	 M7.6,16.2l4.7-4.5l1.8,7.5l-4.6,4.6L7.6,16.2z M18.7,27.3L11,25.4l4.4-4.4l7.6,1.8L18.7,27.3z M30.9,14.2l-7.1-1.8l6.6-6.7
	C32.1,8,32.4,11,30.9,14.2z"/>
</svg>
