<?xml version="1.0" encoding="utf-8"?>
<!-- Generator: Adobe Illustrator 18.1.0, SVG Export Plug-In . SVG Version: 6.00 Build 0)  -->
<!DOCTYPE svg PUBLIC "-//W3C//DTD SVG 1.1//EN" "http://www.w3.org/Graphics/SVG/1.1/DTD/svg11.dtd">
<svg version="1.1" id="Layer_1" xmlns="http://www.w3.org/2000/svg" xmlns:xlink="http://www.w3.org/1999/xlink" x="0px" y="0px"
	 viewBox="0 0 35 35" enable-background="new 0 0 35 35" xml:space="preserve">
<g>
	<path d="M33.5,25c0,1.7-1.3,3-3,3H4.5c-1.7,0-3-1.3-3-3V8h4V6h27.9V25z M5.5,10h-2v15c0,0.5,0.5,1,1,1s1-0.5,1-1V10z M31.5,8H7.5
		v17c0,0.3-0.1,0.7-0.2,1h23.1c0.5,0,1-0.5,1-1V8z M19.5,20h-10V10h10V20z M19.5,24h-10v-2h10V24z M11.5,12v6h6v-6H11.5z M29.5,12
		h-8v-2h8V12z M29.5,16h-8v-2h8V16z M29.5,20h-8v-2h8V20z M29.5,24h-8v-2h8V24z"/>
</g>
</svg>
