<?xml version="1.0" encoding="utf-8"?>
<!-- Generator: Adobe Illustrator 18.1.0, SVG Export Plug-In . SVG Version: 6.00 Build 0)  -->
<!DOCTYPE svg PUBLIC "-//W3C//DTD SVG 1.1//EN" "http://www.w3.org/Graphics/SVG/1.1/DTD/svg11.dtd">
<svg version="1.1" id="Layer_1" xmlns="http://www.w3.org/2000/svg" xmlns:xlink="http://www.w3.org/1999/xlink" x="0px" y="0px"
	 viewBox="0 0 35 35" enable-background="new 0 0 35 35" xml:space="preserve">
<rect x="-17.5" y="-29.2" fill-rule="evenodd" clip-rule="evenodd" fill="none" width="640" height="1136"/>
<g>
	<g>
		<path d="M19.3,30.5h-3.6c-1.6,0-2.8-1.3-2.8-2.8v-6.9H6c-1.6,0-2.8-1.3-2.8-2.8v-3.6c0-1.6,1.3-2.8,2.8-2.8h6.9V4.6
			c0-1.6,1.3-2.8,2.8-2.8h3.6c1.6,0,2.8,1.3,2.8,2.8v6.9H29c1.6,0,2.8,1.3,2.8,2.8v3.6c0,1.6-1.3,2.8-2.8,2.8h-6.9v6.9
			C22.1,29.2,20.9,30.5,19.3,30.5z M6,13.5c-0.5,0-0.8,0.4-0.8,0.8v3.6c0,0.5,0.4,0.8,0.8,0.8h8.9v8.9c0,0.5,0.4,0.8,0.8,0.8h3.6
			c0.5,0,0.8-0.4,0.8-0.8v-8.9H29c0.5,0,0.8-0.4,0.8-0.8v-3.6c0-0.5-0.4-0.8-0.8-0.8h-8.9V4.6c0-0.5-0.4-0.8-0.8-0.8h-3.6
			c-0.5,0-0.8,0.4-0.8,0.8v8.9H6z"/>
	</g>
</g>
</svg>
