<?xml version="1.0" encoding="utf-8"?>
<!-- Generator: Adobe Illustrator 18.1.0, SVG Export Plug-In . SVG Version: 6.00 Build 0)  -->
<!DOCTYPE svg PUBLIC "-//W3C//DTD SVG 1.1//EN" "http://www.w3.org/Graphics/SVG/1.1/DTD/svg11.dtd">
<svg version="1.1" id="Layer_1" xmlns="http://www.w3.org/2000/svg" xmlns:xlink="http://www.w3.org/1999/xlink" x="0px" y="0px"
	 viewBox="0 0 35 35" enable-background="new 0 0 35 35" xml:space="preserve">
<g>
	<path d="M31.3,32.5c-0.6,0-1.3-0.3-1.7-0.7L23,25.3c-2.2,1.5-4.9,2.4-7.6,2.4c-7.4,0-13.4-6-13.4-13.4S8.1,1,15.5,1
		s13.4,6,13.4,13.4c0,2.7-0.8,5.3-2.4,7.6l6.5,6.5c0.4,0.4,0.7,1.1,0.7,1.7C33.7,31.4,32.6,32.5,31.3,32.5z M15.5,5.8
		C10.8,5.8,7,9.6,7,14.3s3.8,8.5,8.5,8.5S24,19,24,14.3S20.2,5.8,15.5,5.8z"/>
</g>
</svg>
